<?xml version="1.0" encoding="utf-8"?>
<!-- Generator: Adobe Illustrator 18.1.1, SVG Export Plug-In . SVG Version: 6.00 Build 0)  -->
<svg version="1.1" id="Layer_1" xmlns="http://www.w3.org/2000/svg" xmlns:xlink="http://www.w3.org/1999/xlink" x="0px" y="0px"
	 viewBox="-408 583.5 24 24" enable-background="new -408 583.5 24 24" xml:space="preserve">
<path fill="#86A3B3" d="M-396,589.5v3l4-4l-4-4v3c-4.4,0-8,3.6-8,8c0,1.6,0.5,3,1.2,4.3l1.5-1.5c-0.5-0.8-0.7-1.8-0.7-2.8
	C-402,592.2-399.3,589.5-396,589.5z M-389.2,591.3l-1.5,1.5c0.4,0.8,0.7,1.8,0.7,2.8c0,3.3-2.7,6-6,6v-3l-4,4l4,4v-3
	c4.4,0,8-3.6,8-8C-388,594-388.5,592.5-389.2,591.3z"/>
<path fill="none" d="M-408,583.5h24v24h-24V583.5z"/>
</svg>
