<?xml version="1.0" encoding="utf-8"?>
<!-- Generator: Adobe Illustrator 18.1.1, SVG Export Plug-In . SVG Version: 6.00 Build 0)  -->
<svg version="1.1" id="Layer_1" xmlns="http://www.w3.org/2000/svg" xmlns:xlink="http://www.w3.org/1999/xlink" x="0px" y="0px"
	 viewBox="-408 583.5 24 24" enable-background="new -408 583.5 24 24" xml:space="preserve">
<path fill="none" d="M-408,583.5h24v24h-24V583.5z"/>
<path fill="#86A3B3" d="M-395,586.5c-5,0-9,4-9,9h-3l3.9,3.9l0.1,0.1l4-4h-3c0-3.9,3.1-7,7-7s7,3.1,7,7s-3.1,7-7,7
	c-1.9,0-3.7-0.8-4.9-2.1l-1.4,1.4c1.6,1.6,3.9,2.6,6.4,2.6c5,0,9-4,9-9C-386,590.6-390,586.5-395,586.5z M-396,591.5v5l4.3,2.5
	l0.7-1.2l-3.5-2.1v-4.3H-396z"/>
</svg>
